{
  "accessors": [
    {
      "bufferView": 2,
      "componentType": 5126,
      "count": 453,
      "max": [
        0.034856699407100677,
        -0.76384198665618896,
        0.23979699611663818
      ],
      "min": [
        -0.092857398092746735,
        -0.99417001008987427,
        0.22669300436973572
      ],
      "type": "VEC3"
    },
    {
      "bufferView": 2,
      "byteOffset": 5436,
      "componentType": 5126,
      "count": 453,
      "max": [
        0.9993477463722229,
        0.98443633317947388,
        0.99997824430465698
      ],
      "min": [
        -0.99943113327026367,
        -0.99843877553939819,
        -0.99965447187423706
      ],
      "type": "VEC3"
    },
    {
      "bufferView": 3,
      "componentType": 5126,
      "count": 453,
      "max": [
        1,
        0.76249098777770996,
        1,
        1
      ],
      "min": [
        -1,
        -0.67236900329589844,
        -1,
        -1
      ],
      "type": "VEC4"
    },
    {
      "bufferView": 1,
      "componentType": 5126,
      "count": 453,
      "max": [
        0.98758202791213989,
        0.98928099870681763
      ],
      "min": [
        0.012418000027537346,
        0.11952699720859528
      ],
      "type": "VEC2"
    },
    {
      "bufferView": 0,
      "componentType": 5125,
      "count": 2160,
      "max": [
        452
      ],
      "min": [
        0
      ],
      "type": "SCALAR"
    },
    {
      "bufferView": 2,
      "byteOffset": 10872,
      "componentType": 5126,
      "count": 11502,
      "max": [
        0.057658299803733826,
        -0.76227599382400513,
        0.24291400611400604
      ],
      "min": [
        0.023941399529576302,
        -0.91246700286865234,
        0.22645199298858643
      ],
      "type": "VEC3"
    },
    {
      "bufferView": 2,
      "byteOffset": 148896,
      "componentType": 5126,
      "count": 11502,
      "max": [
        0.99998980760574341,
        0.99967032670974731,
        0.99994701147079468
      ],
      "min": [
        -0.99994081258773804,
        -0.99951380491256714,
        -0.99945908784866333
      ],
      "type": "VEC3"
    },
    {
      "bufferView": 3,
      "byteOffset": 7248,
      "componentType": 5126,
      "count": 11502,
      "max": [
        0.90065300464630127,
        0.99943900108337402,
        0.99959397315979004,
        1
      ],
      "min": [
        -1,
        -0.99880897998809814,
        -0.99953699111938477,
        -1
      ],
      "type": "VEC4"
    },
    {
      "bufferView": 1,
      "byteOffset": 3624,
      "componentType": 5126,
      "count": 11502,
      "max": [
        0.90752100944519043,
        0.99800801277160645
      ],
      "min": [
        0.0018110000528395176,
        0.0019920000340789557
      ],
      "type": "VEC2"
    },
    {
      "bufferView": 0,
      "byteOffset": 8640,
      "componentType": 5125,
      "count": 53826,
      "max": [
        11501
      ],
      "min": [
        0
      ],
      "type": "SCALAR"
    },
    {
      "bufferView": 2,
      "byteOffset": 286920,
      "componentType": 5126,
      "count": 602,
      "max": [
        0.092857398092746735,
        1,
        0.34295499324798584
      ],
      "min": [
        -0.029847100377082825,
        -1,
        -0.34295499324798584
      ],
      "type": "VEC3"
    },
    {
      "bufferView": 2,
      "byteOffset": 294144,
      "componentType": 5126,
      "count": 602,
      "max": [
        1,
        0.99963223934173584,
        0.99960201978683472
      ],
      "min": [
        -0.99995821714401245,
        -0.99987900257110596,
        -0.99960201978683472
      ],
      "type": "VEC3"
    },
    {
      "bufferView": 3,
      "byteOffset": 191280,
      "componentType": 5126,
      "count": 602,
      "max": [
        0.99995702505111694,
        0.60986298322677612,
        1,
        1
      ],
      "min": [
        -0.99995797872543335,
        -0.61054199934005737,
        -1,
        1
      ],
      "type": "VEC4"
    },
    {
      "bufferView": 1,
      "byteOffset": 95640,
      "componentType": 5126,
      "count": 602,
      "max": [
        0.87073701620101929,
        0.99061697721481323
      ],
      "min": [
        0.1143139973282814,
        0.0088179996237158775
      ],
      "type": "VEC2"
    },
    {
      "bufferView": 0,
      "byteOffset": 223944,
      "componentType": 5125,
      "count": 3264,
      "max": [
        601
      ],
      "min": [
        0
      ],
      "type": "SCALAR"
    },
    {
      "bufferView": 2,
      "byteOffset": 301368,
      "componentType": 5126,
      "count": 545,
      "max": [
        0.035602599382400513,
        -0.7482830286026001,
        -0.22659499943256378
      ],
      "min": [
        0.022975899279117584,
        -0.76117300987243652,
        -0.23661699891090393
      ],
      "type": "VEC3"
    },
    {
      "bufferView": 2,
      "byteOffset": 307908,
      "componentType": 5126,
      "count": 545,
      "max": [
        0.87771773338317871,
        0.97748976945877075,
        0.99932336807250977
      ],
      "min": [
        -0.99994999170303345,
        -0.82955145835876465,
        -0.99904662370681763
      ],
      "type": "VEC3"
    },
    {
      "bufferView": 3,
      "byteOffset": 200912,
      "componentType": 5126,
      "count": 545,
      "max": [
        0.99996000528335571,
        0.8526650071144104,
        0.9998059868812561,
        1
      ],
      "min": [
        -0.99999397993087769,
        -0.9202989935874939,
        -0.99989700317382812,
        1
      ],
      "type": "VEC4"
    },
    {
      "bufferView": 1,
      "byteOffset": 100456,
      "componentType": 5126,
      "count": 545,
      "max": [
        0.98773801326751709,
        0.98864799737930298
      ],
      "min": [
        0.011351999826729298,
        0.011351999826729298
      ],
      "type": "VEC2"
    },
    {
      "bufferView": 0,
      "byteOffset": 237000,
      "componentType": 5125,
      "count": 2628,
      "max": [
        544
      ],
      "min": [
        0
      ],
      "type": "SCALAR"
    },
    {
      "bufferView": 2,
      "byteOffset": 314448,
      "componentType": 5126,
      "count": 545,
      "max": [
        0.035602599382400513,
        -0.7482830286026001,
        0.23545399308204651
      ],
      "min": [
        0.022975899279117584,
        -0.76117300987243652,
        0.22543199360370636
      ],
      "type": "VEC3"
    },
    {
      "bufferView": 2,
      "byteOffset": 320988,
      "componentType": 5126,
      "count": 545,
      "max": [
        0.87772232294082642,
        0.97754174470901489,
        0.99904698133468628
      ],
      "min": [
        -0.99994736909866333,
        -0.82955187559127808,
        -0.99932247400283813
      ],
      "type": "VEC3"
    },
    {
      "bufferView": 3,
      "byteOffset": 209632,
      "componentType": 5126,
      "count": 545,
      "max": [
        0.9999849796295166,
        0.92029297351837158,
        0.99980497360229492,
        1
      ],
      "min": [
        -0.99998199939727783,
        -0.90998798608779907,
        -0.99997597932815552,
        1
      ],
      "type": "VEC4"
    },
    {
      "bufferView": 1,
      "byteOffset": 104816,
      "componentType": 5126,
      "count": 545,
      "max": [
        0.98864799737930298,
        0.9575989842414856
      ],
      "min": [
        0.011351999826729298,
        0.011351999826729298
      ],
      "type": "VEC2"
    },
    {
      "bufferView": 0,
      "byteOffset": 247512,
      "componentType": 5125,
      "count": 2628,
      "max": [
        544
      ],
      "min": [
        0
      ],
      "type": "SCALAR"
    },
    {
      "bufferView": 2,
      "byteOffset": 327528,
      "componentType": 5126,
      "count": 1888,
      "max": [
        0.058152198791503906,
        -0.73023498058319092,
        0.25853800773620605
      ],
      "min": [
        0.023278199136257172,
        -0.92831701040267944,
        0.20957200229167938
      ],
      "type": "VEC3"
    },
    {
      "bufferView": 2,
      "byteOffset": 350184,
      "componentType": 5126,
      "count": 1888,
      "max": [
        0.99999666213989258,
        0.99636185169219971,
        0.99990910291671753
      ],
      "min": [
        -0.99961733818054199,
        -0.99862998723983765,
        -0.99997347593307495
      ],
      "type": "VEC3"
    },
    {
      "bufferView": 3,
      "byteOffset": 218352,
      "componentType": 5126,
      "count": 1888,
      "max": [
        0.99997198581695557,
        0.99833500385284424,
        0.99994301795959473,
        1
      ],
      "min": [
        -0.99989902973175049,
        -0.99844497442245483,
        -0.99986499547958374,
        -1
      ],
      "type": "VEC4"
    },
    {
      "bufferView": 1,
      "byteOffset": 109176,
      "componentType": 5126,
      "count": 1888,
      "max": [
        0.96548402309417725,
        0.99492001533508301
      ],
      "min": [
        0.038876999169588089,
        0.0089440001174807549
      ],
      "type": "VEC2"
    },
    {
      "bufferView": 0,
      "byteOffset": 258024,
      "componentType": 5125,
      "count": 10176,
      "max": [
        1887
      ],
      "min": [
        0
      ],
      "type": "SCALAR"
    },
    {
      "bufferView": 2,
      "byteOffset": 372840,
      "componentType": 5126,
      "count": 1885,
      "max": [
        0.058152198791503906,
        -0.73023498058319092,
        -0.21073600649833679
      ],
      "min": [
        0.023278199136257172,
        -0.92831701040267944,
        -0.25970101356506348
      ],
      "type": "VEC3"
    },
    {
      "bufferView": 2,
      "byteOffset": 395460,
      "componentType": 5126,
      "count": 1885,
      "max": [
        0.99999666213989258,
        0.99635809659957886,
        0.9999733567237854
      ],
      "min": [
        -0.99961721897125244,
        -0.99863189458847046,
        -0.99990898370742798
      ],
      "type": "VEC3"
    },
    {
      "bufferView": 3,
      "byteOffset": 248560,
      "componentType": 5126,
      "count": 1885,
      "max": [
        0.99997001886367798,
        0.99833399057388306,
        0.99999898672103882,
        1
      ],
      "min": [
        -0.99993902444839478,
        -0.9982370138168335,
        -0.99996298551559448,
        1
      ],
      "type": "VEC4"
    },
    {
      "bufferView": 1,
      "byteOffset": 124280,
      "componentType": 5126,
      "count": 1885,
      "max": [
        0.96548402309417725,
        0.99492001533508301
      ],
      "min": [
        0.038876999169588089,
        0.0089440001174807549
      ],
      "type": "VEC2"
    },
    {
      "bufferView": 0,
      "byteOffset": 298728,
      "componentType": 5125,
      "count": 10176,
      "max": [
        1884
      ],
      "min": [
        0
      ],
      "type": "SCALAR"
    },
    {
      "bufferView": 2,
      "byteOffset": 418080,
      "componentType": 5126,
      "count": 11587,
      "max": [
        0.057658299803733826,
        -0.76230102777481079,
        -0.22769799828529358
      ],
      "min": [
        0.023941399529576302,
        -0.9124940037727356,
        -0.24409499764442444
      ],
      "type": "VEC3"
    },
    {
      "bufferView": 2,
      "byteOffset": 557124,
      "componentType": 5126,
      "count": 11587,
      "max": [
        0.99998980760574341,
        0.99933183193206787,
        0.99945527315139771
      ],
      "min": [
        -0.99994069337844849,
        -0.9998929500579834,
        -0.99999344348907471
      ],
      "type": "VEC3"
    },
    {
      "bufferView": 3,
      "byteOffset": 278720,
      "componentType": 5126,
      "count": 11587,
      "max": [
        0.90065300464630127,
        0.99880999326705933,
        1,
        1
      ],
      "min": [
        -1,
        -0.99999099969863892,
        -1,
        -1
      ],
      "type": "VEC4"
    },
    {
      "bufferView": 1,
      "byteOffset": 139360,
      "componentType": 5126,
      "count": 11587,
      "max": [
        0.90752100944519043,
        0.99800801277160645
      ],
      "min": [
        0.0018110000528395176,
        0.0019920000340789557
      ],
      "type": "VEC2"
    },
    {
      "bufferView": 0,
      "byteOffset": 339432,
      "componentType": 5125,
      "count": 54063,
      "max": [
        11586
      ],
      "min": [
        0
      ],
      "type": "SCALAR"
    },
    {
      "bufferView": 2,
      "byteOffset": 696168,
      "componentType": 5126,
      "count": 450,
      "max": [
        0.034856699407100677,
        -0.76384198665618896,
        -0.22785699367523193
      ],
      "min": [
        -0.092857398092746735,
        -0.99417001008987427,
        -0.24096000194549561
      ],
      "type": "VEC3"
    },
    {
      "bufferView": 2,
      "byteOffset": 701568,
      "componentType": 5126,
      "count": 450,
      "max": [
        0.99934762716293335,
        0.98445135354995728,
        0.99965447187423706
      ],
      "min": [
        -0.99943113327026367,
        -0.99844038486480713,
        -0.99997824430465698
      ],
      "type": "VEC3"
    },
    {
      "bufferView": 3,
      "byteOffset": 464112,
      "componentType": 5126,
      "count": 450,
      "max": [
        1,
        0.67218697071075439,
        1,
        1
      ],
      "min": [
        -1,
        -0.7641109824180603,
        -1,
        -1
      ],
      "type": "VEC4"
    },
    {
      "bufferView": 1,
      "byteOffset": 232056,
      "componentType": 5126,
      "count": 450,
      "max": [
        0.98690497875213623,
        0.98868101835250854
      ],
      "min": [
        0.013094999827444553,
        0.12012699991464615
      ],
      "type": "VEC2"
    },
    {
      "bufferView": 0,
      "byteOffset": 555684,
      "componentType": 5125,
      "count": 2160,
      "max": [
        449
      ],
      "min": [
        0
      ],
      "type": "SCALAR"
    }
  ],
  "asset": {
    "extras": {
      "author": "Scott VanArsdale (https://sketchfab.com/vanart)",
      "license": "CC-BY-4.0 (http://creativecommons.org/licenses/by/4.0/)",
      "source": "https://sketchfab.com/models/58873069d37f4dc18993d99d45189b05",
      "title": "Surfboard"
    },
    "generator": "Sketchfab-3.19.4",
    "version": "2.0"
  },
  "bufferViews": [
    {
      "buffer": 0,
      "byteLength": 564324,
      "byteOffset": 0,
      "name": "floatBufferViews",
      "target": 34963
    },
    {
      "buffer": 0,
      "byteLength": 235656,
      "byteOffset": 564324,
      "byteStride": 8,
      "name": "floatBufferViews",
      "target": 34962
    },
    {
      "buffer": 0,
      "byteLength": 706968,
      "byteOffset": 799980,
      "byteStride": 12,
      "name": "floatBufferViews",
      "target": 34962
    },
    {
      "buffer": 0,
      "byteLength": 471312,
      "byteOffset": 1506948,
      "byteStride": 16,
      "name": "floatBufferViews",
      "target": 34962
    }
  ],
  "buffers": [
    {
      "byteLength": 1978260,
      "uri": "scene.bin"
    }
  ],
  "images": [
    {
      "uri": "textures/anisotropic1SG_baseColor.jpeg"
    },
    {
      "uri": "textures/anisotropic1SG_normal.jpeg"
    },
    {
      "uri": "textures/anisotropic1SG_metallicRoughness.png"
    },
    {
      "uri": "textures/phong1SG_normal.jpeg"
    },
    {
      "uri": "textures/phong1SG_metallicRoughness.png"
    },
    {
      "uri": "textures/phong1SG_baseColor.jpeg"
    },
    {
      "uri": "textures/blinn1SG_baseColor.jpeg"
    },
    {
      "uri": "textures/blinn1SG_normal.jpeg"
    },
    {
      "uri": "textures/blinn1SG_metallicRoughness.png"
    }
  ],
  "materials": [
    {
      "doubleSided": true,
      "emissiveFactor": [
        0,
        0,
        0
      ],
      "name": "phong1SG",
      "normalTexture": {
        "index": 3,
        "scale": 1,
        "texCoord": 0
      },
      "pbrMetallicRoughness": {
        "baseColorFactor": [
          1,
          1,
          1,
          1
        ],
        "baseColorTexture": {
          "index": 5,
          "texCoord": 0
        },
        "metallicFactor": 1,
        "metallicRoughnessTexture": {
          "index": 4,
          "texCoord": 0
        },
        "roughnessFactor": 1
      }
    },
    {
      "doubleSided": true,
      "name": "anisotropic1SG",
      "normalTexture": {
        "index": 1,
        "scale": 1,
        "texCoord": 0
      },
      "pbrMetallicRoughness": {
        "baseColorFactor": [
          1,
          1,
          1,
          1
        ],
        "baseColorTexture": {
          "index": 0,
          "texCoord": 0
        },
        "metallicFactor": 1,
        "metallicRoughnessTexture": {
          "index": 2,
          "texCoord": 0
        },
        "roughnessFactor": 1
      }
    },
    {
      "doubleSided": true,
      "name": "blinn1SG",
      "normalTexture": {
        "index": 7,
        "scale": 1,
        "texCoord": 0
      },
      "occlusionTexture": {
        "index": 8,
        "strength": 1,
        "texCoord": 0
      },
      "pbrMetallicRoughness": {
        "baseColorFactor": [
          1,
          1,
          1,
          1
        ],
        "baseColorTexture": {
          "index": 6,
          "texCoord": 0
        },
        "metallicFactor": 1,
        "metallicRoughnessTexture": {
          "index": 8,
          "texCoord": 0
        },
        "roughnessFactor": 1
      }
    }
  ],
  "meshes": [
    {
      "name": "defaultMaterial",
      "primitives": [
        {
          "attributes": {
            "NORMAL": 1,
            "POSITION": 0,
            "TANGENT": 2,
            "TEXCOORD_0": 3
          },
          "indices": 4,
          "material": 0,
          "mode": 4
        }
      ]
    },
    {
      "name": "defaultMaterial",
      "primitives": [
        {
          "attributes": {
            "NORMAL": 6,
            "POSITION": 5,
            "TANGENT": 7,
            "TEXCOORD_0": 8
          },
          "indices": 9,
          "material": 0,
          "mode": 4
        }
      ]
    },
    {
      "name": "defaultMaterial",
      "primitives": [
        {
          "attributes": {
            "NORMAL": 11,
            "POSITION": 10,
            "TANGENT": 12,
            "TEXCOORD_0": 13
          },
          "indices": 14,
          "material": 2,
          "mode": 4
        }
      ]
    },
    {
      "name": "defaultMaterial",
      "primitives": [
        {
          "attributes": {
            "NORMAL": 16,
            "POSITION": 15,
            "TANGENT": 17,
            "TEXCOORD_0": 18
          },
          "indices": 19,
          "material": 1,
          "mode": 4
        }
      ]
    },
    {
      "name": "defaultMaterial",
      "primitives": [
        {
          "attributes": {
            "NORMAL": 21,
            "POSITION": 20,
            "TANGENT": 22,
            "TEXCOORD_0": 23
          },
          "indices": 24,
          "material": 1,
          "mode": 4
        }
      ]
    },
    {
      "name": "defaultMaterial",
      "primitives": [
        {
          "attributes": {
            "NORMAL": 26,
            "POSITION": 25,
            "TANGENT": 27,
            "TEXCOORD_0": 28
          },
          "indices": 29,
          "material": 0,
          "mode": 4
        }
      ]
    },
    {
      "name": "defaultMaterial",
      "primitives": [
        {
          "attributes": {
            "NORMAL": 31,
            "POSITION": 30,
            "TANGENT": 32,
            "TEXCOORD_0": 33
          },
          "indices": 34,
          "material": 0,
          "mode": 4
        }
      ]
    },
    {
      "name": "defaultMaterial",
      "primitives": [
        {
          "attributes": {
            "NORMAL": 36,
            "POSITION": 35,
            "TANGENT": 37,
            "TEXCOORD_0": 38
          },
          "indices": 39,
          "material": 0,
          "mode": 4
        }
      ]
    },
    {
      "name": "defaultMaterial",
      "primitives": [
        {
          "attributes": {
            "NORMAL": 41,
            "POSITION": 40,
            "TANGENT": 42,
            "TEXCOORD_0": 43
          },
          "indices": 44,
          "material": 0,
          "mode": 4
        }
      ]
    }
  ],
  "nodes": [
    {
      "children": [
        1
      ],
      "name": "RootNode (gltf orientation matrix)",
      "rotation": [
        -0.70710678118654746,
        -0,
        -0,
        0.70710678118654757
      ]
    },
    {
      "children": [
        2
      ],
      "name": "RootNode (model correction matrix)"
    },
    {
      "children": [
        3,
        5,
        7,
        9,
        11,
        13,
        15,
        17,
        19
      ],
      "matrix": [
        1,
        0,
        0,
        0,
        0,
        -4.3711390063094768e-08,
        0.999999999999999,
        0,
        0,
        -0.999999999999999,
        -4.3711390063094768e-08,
        0,
        0,
        0,
        0,
        1
      ],
      "name": "Collada visual scene group"
    },
    {
      "children": [
        4
      ],
      "name": "g"
    },
    {
      "mesh": 0,
      "name": "defaultMaterial"
    },
    {
      "children": [
        6
      ],
      "name": "g"
    },
    {
      "mesh": 1,
      "name": "defaultMaterial"
    },
    {
      "children": [
        8
      ],
      "name": "g"
    },
    {
      "mesh": 2,
      "name": "defaultMaterial"
    },
    {
      "children": [
        10
      ],
      "name": "g"
    },
    {
      "mesh": 3,
      "name": "defaultMaterial"
    },
    {
      "children": [
        12
      ],
      "name": "g"
    },
    {
      "mesh": 4,
      "name": "defaultMaterial"
    },
    {
      "children": [
        14
      ],
      "name": "g"
    },
    {
      "mesh": 5,
      "name": "defaultMaterial"
    },
    {
      "children": [
        16
      ],
      "name": "g"
    },
    {
      "mesh": 6,
      "name": "defaultMaterial"
    },
    {
      "children": [
        18
      ],
      "name": "g"
    },
    {
      "mesh": 7,
      "name": "defaultMaterial"
    },
    {
      "children": [
        20
      ],
      "name": "g"
    },
    {
      "mesh": 8,
      "name": "defaultMaterial"
    }
  ],
  "samplers": [
    {
      "magFilter": 9729,
      "minFilter": 9987,
      "wrapS": 10497,
      "wrapT": 10497
    }
  ],
  "scene": 0,
  "scenes": [
    {
      "name": "OSG_Scene",
      "nodes": [
        0
      ]
    }
  ],
  "textures": [
    {
      "sampler": 0,
      "source": 0
    },
    {
      "sampler": 0,
      "source": 1
    },
    {
      "sampler": 0,
      "source": 2
    },
    {
      "sampler": 0,
      "source": 3
    },
    {
      "sampler": 0,
      "source": 4
    },
    {
      "sampler": 0,
      "source": 5
    },
    {
      "sampler": 0,
      "source": 6
    },
    {
      "sampler": 0,
      "source": 7
    },
    {
      "sampler": 0,
      "source": 8
    }
  ]
}

