{
  "accessors": [
    {
      "bufferView": 2,
      "componentType": 5126,
      "count": 5826,
      "max": [
        2.3744199275970459,
        0.57899999618530273,
        0.23342999815940857
      ],
      "min": [
        -2.4565598964691162,
        -0.57899999618530273,
        -0.088969998061656952
      ],
      "type": "VEC3"
    },
    {
      "bufferView": 2,
      "byteOffset": 69912,
      "componentType": 5126,
      "count": 5826,
      "max": [
        0.99263638257980347,
        0.99993026256561279,
        0.99999946355819702
      ],
      "min": [
        -0.96976727247238159,
        -0.99993026256561279,
        -1
      ],
      "type": "VEC3"
    },
    {
      "bufferView": 3,
      "componentType": 5126,
      "count": 5826,
      "max": [
        1,
        0.97706121206283569,
        0.98035168647766113,
        1
      ],
      "min": [
        -0.96498912572860718,
        -0.97705668210983276,
        -0.99979043006896973,
        1
      ],
      "type": "VEC4"
    },
    {
      "bufferView": 1,
      "componentType": 5126,
      "count": 5826,
      "max": [
        0.97298997640609741,
        0.98549002408981323
      ],
      "min": [
        0.0522800013422966,
        0.020120000466704369
      ],
      "type": "VEC2"
    },
    {
      "bufferView": 0,
      "componentType": 5125,
      "count": 33792,
      "max": [
        5825
        
      ],
      "min": [
        0
      ],
      "type": "SCALAR"
    },
    {
      "bufferView": 2,
      "byteOffset": 139824,
      "componentType": 5126,
      "count": 336,
      "max": [
        0.19181999564170837,
        0.042670000344514847,
        0.13775999844074249
      ],
      "min": [
        -0.24557000398635864,
        -0.039590001106262207,
        -0.15929000079631805
      ],
      "type": "VEC3"
    },
    {
      "bufferView": 2,
      "byteOffset": 143856,
      "componentType": 5126,
      "count": 336,
      "max": [
        0.80562102794647217,
        0.99941051006317139,
        0.80143380165100098
      ],
      "min": [
        -0.99939215183258057,
        -0.99988061189651489,
        -0.996337890625
      ],
      "type": "VEC3"
    },
    {
      "bufferView": 3,
      "byteOffset": 93216,
      "componentType": 5126,
      "count": 336,
      "max": [
        0.69070756435394287,
        0.99319583177566528,
        0.99439448118209839,
        1
      ],
      "min": [
        -0.47015047073364258,
        -0.99441629648208618,
        -0.013176658190786839,
        -1
      ],
      "type": "VEC4"
    },
    {
      "bufferView": 1,
      "byteOffset": 46608,
      "componentType": 5126,
      "count": 336,
      "max": [
        0.89722001552581787,
        0.9643700122833252
      ],
      "min": [
        0.12935000658035278,
        0.037749998271465302
      ],
      "type": "VEC2"
    },
    {
      "bufferView": 0,
      "byteOffset": 135168,
      "componentType": 5125,
      "count": 1728,
      "max": [
        335
      ],
      "min": [
        0
      ],
      "type": "SCALAR"
    },
    {
      "bufferView": 2,
      "byteOffset": 147888,
      "componentType": 5126,
      "count": 336,
      "max": [
        0.19181999564170837,
        0.042670000344514847,
        0.13775999844074249
      ],
      "min": [
        -0.24557000398635864,
        -0.039590001106262207,
        -0.15929000079631805
      ],
      "type": "VEC3"
    },
    {
      "bufferView": 2,
      "byteOffset": 151920,
      "componentType": 5126,
      "count": 336,
      "max": [
        0.80562102794647217,
        0.99941051006317139,
        0.80143380165100098
      ],
      "min": [
        -0.99939215183258057,
        -0.99988061189651489,
        -0.996337890625
      ],
      "type": "VEC3"
    },
    {
      "bufferView": 3,
      "byteOffset": 98592,
      "componentType": 5126,
      "count": 336,
      "max": [
        0.69070756435394287,
        0.99319583177566528,
        0.99439448118209839,
        1
      ],
      "min": [
        -0.47015047073364258,
        -0.99441629648208618,
        -0.013176658190786839,
        -1
      ],
      "type": "VEC4"
    },
    {
      "bufferView": 1,
      "byteOffset": 49296,
      "componentType": 5126,
      "count": 336,
      "max": [
        0.89722001552581787,
        0.9643700122833252
      ],
      "min": [
        0.12935000658035278,
        0.037749998271465302
      ],
      "type": "VEC2"
    },
    {
      "bufferView": 0,
      "byteOffset": 142080,
      "componentType": 5125,
      "count": 1728,
      "max": [
        335
      ],
      "min": [
        0
      ],
      "type": "SCALAR"
    },
    {
      "bufferView": 2,
      "byteOffset": 155952,
      "componentType": 5126,
      "count": 336,
      "max": [
        0.1778700053691864,
        0.041159998625516891,
        0.12752999365329742
      ],
      "min": [
        -0.22804999351501465,
        -0.041159998625516891,
        -0.181659996509552
      ],
      "type": "VEC3"
    },
    {
      "bufferView": 2,
      "byteOffset": 159984,
      "componentType": 5126,
      "count": 336,
      "max": [
        0.87154138088226318,
        0.99999827146530151,
        0.72354143857955933
      ],
      "min": [
        -0.99990493059158325,
        -0.99999827146530151,
        -0.99938279390335083
      ],
      "type": "VEC3"
    },
    {
      "bufferView": 3,
      "byteOffset": 103968,
      "componentType": 5126,
      "count": 336,
      "max": [
        0.60617059469223022,
        0.99038714170455933,
        0.99967777729034424,
        1
      ],
      "min": [
        -0.50399690866470337,
        -0.99074971675872803,
        0.0052831037901341915,
        -1
      ],
      "type": "VEC4"
    },
    {
      "bufferView": 1,
      "byteOffset": 51984,
      "componentType": 5126,
      "count": 336,
      "max": [
        0.89722001552581787,
        0.9643700122833252
      ],
      "min": [
        0.12935000658035278,
        0.037749998271465302
      ],
      "type": "VEC2"
    },
    {
      "bufferView": 0,
      "byteOffset": 148992,
      "componentType": 5125,
      "count": 1728,
      "max": [
        335
      ],
      "min": [
        0
      ],
      "type": "SCALAR"
    }
  ],
  "asset": {
    "extras": {
      "author": "Leandro Cruz (https://sketchfab.com/leandro)",
      "license": "CC-BY-SA-4.0 (http://creativecommons.org/licenses/by-sa/4.0/)",
      "source": "https://sketchfab.com/models/bafbc865dc8642b1bacc484dd9a5f1fc",
      "title": "Prancha de Surf/ surfboard"
    },
    "generator": "Sketchfab-3.29.4-rc4",
    "version": "2.0"
  },
  "bufferViews": [
    {
      "buffer": 0,
      "byteLength": 155904,
      "byteOffset": 0,
      "name": "floatBufferViews",
      "target": 34963
    },
    {
      "buffer": 0,
      "byteLength": 54672,
      "byteOffset": 155904,
      "byteStride": 8,
      "name": "floatBufferViews",
      "target": 34962
    },
    {
      "buffer": 0,
      "byteLength": 164016,
      "byteOffset": 210576,
      "byteStride": 12,
      "name": "floatBufferViews",
      "target": 34962
    },
    {
      "buffer": 0,
      "byteLength": 109344,
      "byteOffset": 374592,
      "byteStride": 16,
      "name": "floatBufferViews",
      "target": 34962
    }
  ],
  "buffers": [
    {
      "byteLength": 483936,
      "uri": "scene.bin"
    }
  ],
  "images": [
    {
      "uri": "textures/quilhas_baseColor.png"
    },
    {
      "uri": "textures/Material.001_baseColor.png"
    }
  ],
  "materials": [
    {
      "doubleSided": true,
      "emissiveFactor": [
        0,
        0,
        0
      ],
      "name": "Material.001",
      "pbrMetallicRoughness": {
        "baseColorFactor": [
          1,
          1,
          1,
          1
        ],
        "baseColorTexture": {
          "index": 1,
          "texCoord": 0
        },
        "metallicFactor": 0,
        "roughnessFactor": 0.59999999999999998
      }
    },
    {
      "doubleSided": true,
      "name": "quilhas",
      "pbrMetallicRoughness": {
        "baseColorFactor": [
          1,
          1,
          1,
          1
        ],
        "baseColorTexture": {
          "index": 0,
          "texCoord": 0
        },
        "metallicFactor": 0,
        "roughnessFactor": 0.59999999999999998
      }
    }
  ],
  "meshes": [
    {
      "name": "Prancha",
      "primitives": [
        {
          "attributes": {
            "NORMAL": 1,
            "POSITION": 0,
            "TANGENT": 2,
            "TEXCOORD_0": 3
          },
          "indices": 4,
          "material": 0,
          "mode": 4
        }
      ]
    },
    {
      "name": "Cube.002",
      "primitives": [
        {
          "attributes": {
            "NORMAL": 6,
            "POSITION": 5,
            "TANGENT": 7,
            "TEXCOORD_0": 8
          },
          "indices": 9,
          "material": 1,
          "mode": 4
        }
      ]
    },
    {
      "name": "Cube.001",
      "primitives": [
        {
          "attributes": {
            "NORMAL": 11,
            "POSITION": 10,
            "TANGENT": 12,
            "TEXCOORD_0": 13
          },
          "indices": 14,
          "material": 1,
          "mode": 4
        }
      ]
    },
    {
      "name": "Cube",
      "primitives": [
        {
          "attributes": {
            "NORMAL": 16,
            "POSITION": 15,
            "TANGENT": 17,
            "TEXCOORD_0": 18
          },
          "indices": 19,
          "material": 1,
          "mode": 4
        }
      ]
    }
  ],
  "nodes": [
    {
      "children": [
        1
      ],
      "name": "RootNode (gltf orientation matrix)",
      "rotation": [
        -0.70710678118654746,
        -0,
        -0,
        0.70710678118654757
      ]
    },
    {
      "children": [
        2
      ],
      "matrix": [
        0.99806433916091919,
        0,
        0.062189485877752304,
        0,
        0,
        1,
        0,
        0,
        -0.062189485877752304,
        0,
        0.99806433916091919,
        0,
        -0.0024661736097186804,
        0,
        0.035376440733671188,
        1
      ],
      "name": "RootNode (model correction matrix)"
    },
    {
      "children": [
        3,
        5
      ],
      "name": "Root"
    },
    {
      "children": [
        4
      ],
      "matrix": [
        -0.29086000000000006,
        0.95517000000000007,
        -0.05519000000000001,
        0,
        -0.77110000000000001,
        -0.19988000000000003,
        0.60452000000000006,
        0,
        0.56639000000000006,
        0.21839000000000003,
        0.7946700000000001,
        0,
        2.54156,
        -4.6301499999999995,
        -1.2679699999999998,
        1
      ],
      "name": "Lamp"
    },
    {
      "name": "Lamp"
    },
    {
      "children": [
        6,
        7,
        9,
        11
      ],
      "matrix": [
        0.98399999999999999,
        -0.16412000000000002,
        0.069360000000000019,
        0,
        0.011110000000000002,
        0.44501000000000007,
        0.89546000000000003,
        0,
        -0.17782000000000001,
        -0.88036000000000003,
        0.43971000000000005,
        0,
        -0.51627000000000001,
        -0.42034000000000005,
        -0.05084000000000001,
        1
      ],
      "name": "Prancha"
    },
    {
      "mesh": 0,
      "name": "Prancha"
    },
    {
      "children": [
        8
      ],
      "matrix": [
        1,
        0,
        -0,
        0,
        0,
        -1,
        0,
        0,
        0,
        0,
        1,
        0,
        -1.4598099999999998,
        0.29319000000000001,
        -0.15125000000000002,
        1
      ],
      "name": "Cube.002"
    },
    {
      "mesh": 1,
      "name": "Cube.002"
    },
    {
      "children": [
        10
      ],
      "matrix": [
        1,
        0,
        -0,
        0,
        0,
        1,
        -0,
        0,
        0,
        0,
        1,
        0,
        -1.4598099999999998,
        -0.29319000000000001,
        -0.15125000000000002,
        1
      ],
      "name": "Cube.001"
    },
    {
      "mesh": 2,
      "name": "Cube.001"
    },
    {
      "children": [
        12
      ],
      "matrix": [
        0.99272000000000005,
        0,
        -0.12047000000000001,
        0,
        -0,
        1,
        -0,
        0,
        0.12047000000000001,
        0,
        0.99272000000000005,
        0,
        -1.99678,
        0,
        -0.11791000000000001,
        1
      ],
      "name": "Cube"
    },
    {
      "mesh": 3,
      "name": "Cube"
    }
  ],
  "samplers": [
    {
      "magFilter": 9729,
      "minFilter": 9987,
      "wrapS": 10497,
      "wrapT": 10497
    }
  ],
  "scene": 0,
  "scenes": [
    {
      "name": "OSG_Scene",
      "nodes": [
        0
      ]
    }
  ],
  "textures": [
    {
      "sampler": 0,
      "source": 0
    },
    {
      "sampler": 0,
      "source": 1
    }
  ]
}

